/* XPM */
static char * due_xpm[] = {
"32 37 2 1",
" 	c #000000",
".	c #FFFFFF",
"                                ",
"                                ",
"                                ",
"                                ",
"                                ",
"     ......................     ",
"     ......................     ",
"     ......................     ",
"     ......................     ",
"                  .........     ",
"                  .........     ",
"                  .........     ",
"                  .........     ",
"                  .........     ",
"     ......................     ",
"     ......................     ",
"     ......................     ",
"     ......................     ",
"     .........                  ",
"     .........                  ",
"     .........                  ",
"     .........                  ",
"     .........                  ",
"     ......................     ",
"     ......................     ",
"     ......................     ",
"     ......................     ",
"     ......................     ",
"                                ",
"                                ",
"                                ",
"                                ",
"                                ",
"                                ",
"                                ",
"                                ",
"                                "};
