/* XPM */
static char * enemy1_xpm[] = {
"50 50 11 1",
" 	c #755338",
".	c #503625",
"+	c #1D235D",
"@	c #4D8AB3",
"#	c #65B1B8",
"$	c #425B9E",
"%	c #FFFFFF",
"&	c #000000",
"*	c #33418A",
"=	c #0C0E19",
"-	c #9E2E46",
"                                     ....         ",
"                                     ....         ",
"                                     ....         ",
"                                     ....         ",
"                                     ....         ",
"                                     ....         ",
"............    ......            ................",
"............    ......            ................",
"............    ......            ................",
"                                                  ",
"                                                  ",
"                                                  ",
"                                                  ",
"                                                  ",
"                                                  ",
"                                                  ",
"                                                  ",
"                                                  ",
"                                                  ",
"                ...                               ",
"                ...                               ",
"                ...                               ",
".........................   ......             ...",
".........................   ......             ...",
"............++++++++++++++++++++++++           ...",
"   ...      ++++++++++++++++++++++++              ",
"   ... +++++@@@@@#################@@++            ",
"   ... +++++@@@@@#################@@++            ",
"     ++$$$@@@@@#####################@@+++         ",
"     ++$$$@@@@@#####################@@+++         ",
"     ++$$$@@@@@#####################@@+++         ",
"     ++$$$@@@@@#######%%&&#####&&&####@@@++       ",
"     ++$$$@@@@@#######%%&&#####&&&####@@@++       ",
"   ++$$$$$@@@@@##*****&&&&#####&&&**##@@@$$++     ",
"   ++$$$$$@@@@@##*****&&&&#####&&&**##@@@$$++     ",
"   ++$$$$$@@@@@####***************####@@@$$++     ",
"   ++$$$$$@@@@@####***************####@@@$$++     ",
"...++$$$$$@@@@@####***************####@@@$$++.....",
"===++$$$$$$$@@@@@#####----*****#####@@$$$$$++===..",
"===++$$$$$$$@@@@@#####----*****#####@@$$$$$++===..",
"=====++$$$$$$$$$$@@@@@@@@@@@@@@@@@@@$$$$$++=====..",
"=====++$$$$$$$$$$@@@@@@@@@@@@@@@@@@@$$$$$++=====  ",
"=====++$$$$$$$$$$@@@@@@@@@@@@@@@@@@@$$$$$++=====  ",
"============$$$$$$$$$$$$$$$$$$$$$$$$$$+++=======  ",
"============$$$$$$$$$$$$$$$$$$$$$$$$$$+++=======  ",
"   ==========================================     ",
"   ==========================================     ",
"                                                  ",
"                                                  ",
"                                                  "};
