/* XPM */
static char * floor_xpm[] = {
"50 50 2 1",
" 	c #755338",
".	c #503625",
"                                     ....         ",
"                                     ....         ",
"                                     ....         ",
"                                     ....         ",
"                                     ....         ",
"                                     ....         ",
"............    ......            ................",
"............    ......            ................",
"............    ......            ................",
"                                                  ",
"                                                  ",
"                                                  ",
"                                                  ",
"                                                  ",
"                                                  ",
"                                                  ",
"                                                  ",
"                                                  ",
"                                                  ",
"                ...                               ",
"                ...                               ",
"                ...                               ",
".........................   ......             ...",
".........................   ......             ...",
".........................   ......             ...",
"   ...                                            ",
"   ...                                            ",
"   ...                                            ",
"                                                  ",
"                                                  ",
"                                                  ",
"                                                  ",
"                                                  ",
"                                                  ",
"                                                  ",
"                                                  ",
"                                                  ",
".........          ...............................",
".........          ...............................",
".........          ...............................",
".........          ...............................",
"                                     ....         ",
"                                     ....         ",
"                                     ....         ",
"                                                  ",
"                                                  ",
"                                                  ",
"                                                  ",
"                                                  ",
"                                                  "};
