/* XPM */
static char * sette_xpm[] = {
"32 37 2 1",
" 	c #000000",
".	c #FFFFFF",
"                                ",
"                                ",
"                                ",
"                                ",
"                                ",
"     ......................     ",
"     ......................     ",
"     ......................     ",
"     ......................     ",
"                  .........     ",
"                  .........     ",
"                  .........     ",
"                  .........     ",
"                  .........     ",
"                  .........     ",
"                  .........     ",
"                  .........     ",
"                  .........     ",
"                  .........     ",
"                  .........     ",
"                  .........     ",
"                  .........     ",
"                  .........     ",
"                  .........     ",
"                  .........     ",
"                  .........     ",
"                  .........     ",
"                  .........     ",
"                                ",
"                                ",
"                                ",
"                                ",
"                                ",
"                                ",
"                                ",
"                                ",
"                                "};
