/* XPM */
static char * walls_xpm[] = {
"50 50 5 1",
" 	c #8F9AB0",
".	c #677598",
"+	c #414B66",
"@	c #242A3D",
"#	c #000000",
"    ..+. .. @+++  ...+. ..... @++       .+. .... .",
".....@@+....@@@@....@@+.......@@@.......@@+......@",
"..++++@...++.@@...+++@.....+++.@.....++++@....+++.",
"..++++@...++.@@...+++@.....+++.@.....++++@....+++.",
"..++++@...++.@@...+++@.....+++.@.....++++@....+++.",
"++++++@.+++++@@..++++@.++++++++@...++++++@...+++++",
"++++++@+.++++@@++.+++@+.+++++++@++++.++++@+.++++++",
"+++++@@@++++@@@@++++@@@+++++++@@@+++++++@@@++++++#",
"##@@@@@@@...+@@@@@@@@@@@@.....+@@@@@@@@@@@@@@....#",
"##@@@@@@@...+@@@@@@@@@@@@.....+@@@@@@@@@@@@@@....#",
"##@@@@@@@...+@@@@@@@@@@@@.....+@@@@@@@@@@@@@@....#",
"##...@@@..++.@@+.....@@@....++.@+........@@@..++..",
"......@.++.++++.......@.++++.+++..........@.+++++.",
"..+++.@++++++....++++.@++++++++...+++++++.@+++++++",
"..+++.@++++++....++++.@++++++++...+++++++.@+++++++",
"..+++.@++++++....++++.@++++++++...+++++++.@+++++++",
"++++++@+++++@..+++++++@+++++++@.++++++++++@+++++++",
"+++++@@@@@@@@@@++++++@@@@@@@@@@@+++++++++@@@+++++#",
"##.......@@+.....+@@.......@@+....+@@.......@@+...",
"....++++..@....++.@...+++...@...++.@....+++..@...+",
"....++++..@....++.@...+++...@...++.@....+++..@...+",
"....++++..@....++.@...+++...@...++.@....+++..@...+",
"..+++++.++@.++++++@.++++.+++@.+++++@.+++++.++@.+++",
"++++++++++@@+++++@@+++++++++@@++++@@+++++++++@@+++",
"##+++++++@@@@@@@@@@@+++++++@@@@@@@@@@+++++++@@@@@#",
".....@@+....@@@@....@@+.......@@@.......@@+......@",
".....@@+....@@@@....@@+.......@@@.......@@+......@",
".....@@+....@@@@....@@+.......@@@.......@@+......@",
"..++++@...++.@@...+++@.....+++.@.....++++@....+++.",
"++++++@.+++++@@..++++@.++++++++@...++++++@...+++++",
"++++++@+.++++@@++.+++@+.+++++++@++++.++++@+.++++++",
"++++++@+.++++@@++.+++@+.+++++++@++++.++++@+.++++++",
"++++++@+.++++@@++.+++@+.+++++++@++++.++++@+.++++++",
"+++++@@@++++@@@@++++@@@+++++++@@@+++++++@@@++++++#",
"##@@@@@@@...+@@@@@@@@@@@@.....+@@@@@@@@@@@@@@....#",
"##...@@@..++.@@+.....@@@....++.@+........@@@..++..",
"......@.++.++++.......@.++++++++..........@.+++++.",
"......@.++.++++.......@.++++++++..........@.+++++.",
"......@.++.++++.......@.++++++++..........@.+++++.",
"..+++.@++++++....++++.@++++++++...+++++++.@+++++++",
"++++++@+++++@..+++++++@+++++++@.++++++++++@+++++++",
"+++++@@@@@@@@@@++++++@@@@@@@@@@@+++++++++@@@+++++#",
"+++++@@@@@@@@@@++++++@@@@@@@@@@@+++++++++@@@+++++#",
"+++++@@@@@@@@@@++++++@@@@@@@@@@@+++++++++@@@+++++#",
"##.......@@+.....+@@.......@@+....+@@.......@@+...",
"....++++..@....++.@...+++...@...++.@....+++..@...+",
"..+++++.++@.++++++@.++++.+++@.+++++@.+++++.++@.+++",
"++++++++++@@+++++@@+++++++++@@++++@@+++++++++@@+++",
"++++++++++@@+++++@@+++++++++@@++++@@+++++++++@@+++",
"++++++++++@@+++++@@+++++++++@@++++@@+++++++++@@+++"};
